<?xml version="1.0" encoding="UTF-8"?>
<svg width="104px" height="105px" viewBox="0 0 104 105" version="1.1" xmlns="http://www.w3.org/2000/svg" xmlns:xlink="http://www.w3.org/1999/xlink">
    <title>python</title>
    <g id="Page-1" stroke="none" stroke-width="1" fill="none" fill-rule="evenodd">
        <g id="python-original" fill-rule="nonzero">
            <path d="M51.391,0.988 C47.169,1.008 43.139,1.367 39.591,1.995 C29.141,3.841 27.245,7.705 27.245,14.832 L27.245,24.243 L51.938,24.243 L51.938,27.38 L17.977,27.38 C10.801,27.38 4.517,31.693 2.551,39.901 C0.283,49.306 0.183,55.176 2.551,64.997 C4.306,72.308 8.498,77.516 15.675,77.516 L24.166,77.516 L24.166,66.234 C24.166,58.083 31.217,50.894 39.592,50.894 L64.257,50.894 C71.123,50.894 76.603,45.24 76.603,38.346 L76.603,14.833 C76.603,8.14 70.957,3.113 64.257,1.996 C60.013,1.29 55.612,0.969 51.391,0.988 Z M38.037,8.557 C40.587,8.557 42.671,10.674 42.671,13.278 C42.671,15.871 40.588,17.968 38.037,17.968 C35.477,17.968 33.4039996,15.871 33.4039996,13.278 C33.403,10.674 35.477,8.557 38.037,8.557 Z" id="Shape" fill="#3974A3"></path>
            <path d="M79.682,27.38 L79.682,38.346 C79.682,46.846 72.474,54.001 64.256,54.001 L39.591,54.001 C32.835,54.001 27.245,59.784 27.245,66.55 L27.245,90.065 C27.245,96.756 33.063,100.693 39.591,102.612 C47.407,104.909 54.903,105.325 64.256,102.612 C70.472,100.811 76.602,97.189 76.602,90.065 L76.602,80.653 L51.938,80.653 L51.938,77.515 L88.95,77.515 C96.126,77.515 98.802,72.51 101.298,64.996 C103.876,57.261 103.765,49.822 101.298,39.9 C99.524,32.755 96.137,27.379 88.95,27.379 L79.682,27.379 L79.682,27.38 Z M65.809,86.927 C68.37,86.927 70.443,89.024 70.443,91.619 C70.443,94.221 68.369,96.338 65.809,96.338 C63.259,96.338 61.176,94.221 61.176,91.619 C61.176,89.024 63.259,86.927 65.809,86.927 Z" id="Shape" fill="#FFD43B"></path>
        </g>
    </g>
</svg>