<?xml version="1.0" encoding="UTF-8"?>
<svg width="759px" height="700px" viewBox="0 0 759 700" version="1.1" xmlns="http://www.w3.org/2000/svg" xmlns:xlink="http://www.w3.org/1999/xlink">
    <title>Construction Icon</title>
    <g id="Construction-Icon" stroke="none" stroke-width="1" fill="none" fill-rule="evenodd">
        <rect id="Rectangle" stroke="#000000" stroke-width="30" fill="#D8D8D8" transform="translate(651.500000, 350.000000) rotate(90.000000) translate(-651.500000, -350.000000) " x="316.5" y="305.5" width="670" height="89" rx="20"></rect>
        <rect id="Rectangle" stroke="#000000" stroke-width="30" fill="#D8D8D8" transform="translate(105.500000, 350.000000) rotate(90.000000) translate(-105.500000, -350.000000) " x="-229.5" y="305.5" width="670" height="89" rx="20"></rect>
        <g id="Upper" transform="translate(1.000000, 62.000000)">
            <rect id="Rectangle" stroke="#000000" stroke-width="30" fill="#FFFFFF" x="15" y="15" width="727" height="163" rx="20"></rect>
            <line x1="191" y1="23" x2="76" y2="172" id="Line" stroke="#E94134" stroke-width="20" stroke-linecap="square"></line>
            <line x1="86" y1="23" x2="20" y2="106" id="Line" stroke="#E94134" stroke-width="20" stroke-linecap="square"></line>
            <line x1="305.75" y1="22.75" x2="190.75" y2="171.75" id="Line" stroke="#E94134" stroke-width="20" stroke-linecap="square"></line>
            <line x1="420.75" y1="22.75" x2="305.75" y2="171.75" id="Line" stroke="#E94134" stroke-width="20" stroke-linecap="square"></line>
            <line x1="535.75" y1="22.75" x2="420.75" y2="171.75" id="Line" stroke="#E94134" stroke-width="20" stroke-linecap="square"></line>
            <line x1="648.75" y1="22.75" x2="533.75" y2="171.75" id="Line" stroke="#E94134" stroke-width="20" stroke-linecap="square"></line>
            <line x1="744" y1="36" x2="648.75" y2="171.75" id="Line" stroke="#E94134" stroke-width="20" stroke-linecap="square"></line>
            <rect id="Backing" stroke="#000000" stroke-width="30" x="15" y="15" width="727" height="163" rx="20"></rect>
        </g>
        <g id="Upper" transform="translate(0.000000, 299.000000)">
            <rect id="Rectangle" stroke="#000000" stroke-width="30" fill="#FFFFFF" x="15" y="15" width="727" height="163" rx="20"></rect>
            <line x1="191" y1="23" x2="76" y2="172" id="Line" stroke="#E94134" stroke-width="20" stroke-linecap="square"></line>
            <line x1="86" y1="23" x2="20" y2="106" id="Line" stroke="#E94134" stroke-width="20" stroke-linecap="square"></line>
            <line x1="305.75" y1="22.75" x2="190.75" y2="171.75" id="Line" stroke="#E94134" stroke-width="20" stroke-linecap="square"></line>
            <line x1="420.75" y1="22.75" x2="305.75" y2="171.75" id="Line" stroke="#E94134" stroke-width="20" stroke-linecap="square"></line>
            <line x1="535.75" y1="22.75" x2="420.75" y2="171.75" id="Line" stroke="#E94134" stroke-width="20" stroke-linecap="square"></line>
            <line x1="648.75" y1="22.75" x2="533.75" y2="171.75" id="Line" stroke="#E94134" stroke-width="20" stroke-linecap="square"></line>
            <line x1="744" y1="36" x2="648.75" y2="171.75" id="Line" stroke="#E94134" stroke-width="20" stroke-linecap="square"></line>
            <rect id="Backing" stroke="#000000" stroke-width="30" x="15" y="15" width="727" height="163" rx="20"></rect>
        </g>
    </g>
</svg>