<svg xmlns="http://www.w3.org/2000/svg" width="911" height="91" viewBox="0 0 911 91"><g fill="none" fill-rule="evenodd" transform="translate(1.5 .455)"><g stroke="#FFF" stroke-width="2"><path d="M39.2336 35.1538c.6795-.3353 2.2085-1.8443 4.5869-4.5268.6795-1.006.8494-1.8443.5096-2.515-.2318-.4574-3.0579-3.0178-12.7413-3.5208-6.4556-.3353-12.0618 1.1736-16.8185 4.5268-5.4363 5.0298-7.9846 9.389-7.6448 13.0776.3398 3.6885 2.0386 6.0357 5.0965 7.0417l.085.0305c.2192.1475 1.55.6404 3.9922 1.4784 2.4423.8381 4.9906 1.6764 7.6448 2.515 2.0386 1.006 3.058 2.1795 3.058 3.5208s-1.0194 2.6826-3.058 4.0239c-2.3784 1.006-5.0965 1.3413-8.1544 1.006-3.058-.3354-5.6062-1.006-7.6448-2.012-.3398-.3353-.8494-.503-1.529-.503-.6795 0-1.1892.1677-1.529.503l-4.0771 4.5269C.6699 64.9974.5 65.5004.5 65.8358c0 .3352.3398.6706 1.0193 1.0059 3.7375 3.0179 9.5135 4.1915 17.3282 3.5209 4.69-.4025 9.9273-1.8495 13.7606-5.0299 1.7026-1.4126 3.7412-4.2628 6.1158-8.5507.6796-3.3532.6796-5.7004 0-7.0417-1.0193-2.012-2.5482-4.0239-7.1351-5.5328-4.5869-1.509-14.78-3.018-11.2124-8.0477 3.5676-5.0299 12.7414-2.515 14.2703-2.012 1.529.503 3.5676 1.509 4.5869 1.006z"/><path d="M83.8782 25.545c5.5017-.0048 10.4909 1.1417 13.933 3.9411 2.9336 2.3858 4.6888 5.982 4.6888 11.0172 0 6.0825-2.5243 13.2057-7.3917 18.975-4.117 4.88-9.9189 8.7914-17.3152 10.2812-7.6952 1.55-13.8868.73-18.2387-1.7536-2.2742-1.298-4.034-3.0493-5.2253-5.1379-1.207-2.116-1.8291-4.5748-1.8291-7.2464 0-6.1233 2.9958-15.2308 9.8625-21.8216 4.9973-4.7965 12.0563-8.2466 21.5157-8.255zm-3.5021 9.0001c-4.1513 0-7.6854 2.0807-10.3362 4.9616-3.3675 3.6597-5.2654 8.584-5.2654 11.9072 0 3.275 1.3816 6.0019 3.8661 7.6074 2.216 1.4319 5.3602 1.9868 9.303 1.0876 3.6885-.8413 6.5893-3.0411 8.644-5.7988 2.405-3.2278 3.6379-7.2161 3.6379-10.6161 0-3.1115-1.014-5.2921-2.6024-6.7548-1.7901-1.6484-4.3668-2.394-7.247-2.394z"/><path d="M146.4524 5.5455h-14.727c-.7526 0-1.3214.129-1.7063.3869-.385.2579-.7039 1.0142-.9568 2.2688L124.412 24.174c-.0993.4426-.4096.7737-.931.9932-.7821.3293-1.4929.2115-1.8737.2115h-2.9595c-.7866-.031-1.319.0604-1.5973.2744-.2782.214-.5442.755-.7979 1.623l-1.6609 5.5829c-.2033.4968-.2542.8636-.1525 1.1003.1525.3551.3769.4799 1.3024.4799h4.1796c.5298-.025.912.1501 1.1463.5255.1929.519-.0426.9004-.5462 2.5246-.3357 1.0829-3.318 11.3077-8.9469 30.6744-.1316.4936-.0884.861.1297 1.1024.3272.362 1.805.2685 2.3463.2685h6.61c.6825.031 1.2098-.097 1.582-.3845.3722-.2875.6533-.8054.8433-1.554 6.1006-20.9269 9.183-31.48 9.2476-31.6591.0967-.2688.4172-1.124 1.0183-1.3779.4887-.2064 1.1696-.12 2.964-.12h6.7859c.457.0066.8597-.0718 1.208-.235.5226-.2448.6041-.7622.8091-1.4524.205-.6902 1.6598-5.5457 1.776-6.079.1163-.5334.0231-.9054-.2041-1.1349-.2272-.2294-.3876-.2004-1.1182-.2004h-8.246c-.775 0-1.2543.0902-1.5698-.53-.3154-.6202 1.8274-6.6463 2.28-8.4986.4527-1.8522 1.7528-1.6043 2.406-1.6043h9.4135c.3381.0256.6904-.089 1.0569-.3438.3664-.2548.606-.6085.7185-1.0613l1.816-6.3916s.1808-.6526-.1272-.9754c-.308-.3229-.6434-.387-2.7186-.387h-4.1491zM173.6347 24.2c-.101.4424-.4167.7733-.947.9926-.7957.3291-1.5187.2114-1.9061.2114h-3.0105c-2.1711-.031-3.3982.0604-3.6812.2742-.2831.2139-.5537.7546-.8117 1.6221l-1.6896 5.5797c-.2068.4965-.2585.8631-.1551 1.0997.1551.355 2.4397.4796 3.3812.4796h4.2517c.539-.025.9277.15 1.166.5252.1963.5187-.0433.8999-.5555 2.5232-.3416 1.0822-3.3753 11.3012-9.1013 30.6568-.134.4933-.09.8605.132 1.1017.3328.3618 1.836.2684 2.3867.2684h6.724c.6943.031 1.2308-.097 1.6094-.3843.3786-.2873.6646-.805.8578-1.553 6.2059-20.915 9.3416-31.462 9.4072-31.641.0984-.2687.4244-1.1233 1.0359-1.3771.4971-.2063 1.1898-.12 3.015-.12h4.8468c.4649.0066.8745-.0717 1.2289-.2348.5315-.2447.6145-.7618.823-1.4516.2086-.6898 1.6885-5.5425 1.8067-6.0756.1182-.533.0235-.9049-.2077-1.1342-.2311-.2293-.3943-.2003-1.1375-.2003h-6.3319c-.7884 0-1.276.0902-1.5969-.5297-.3209-.6198.369-2.1273.8294-3.9785.2593-1.0423.6002-2.278-1.5705-2.278h-7.5177c-.8992-.0922-1.4871.021-1.764.34-.2768.3189-.4712.719-.5833 1.2-.636 2.0037-.4678 2.0402-.9342 4.0835z"/><path stroke-linejoin="round" d="M229.1428 33.0325l-12.6179 20.7409c-.4425.7193-.9555 1.079-1.539 1.079-.5837 0-.8932-.3597-.9285-1.079l-1.1107-26.9414c0-.5058-.1191-.8535-.3573-1.043-.2382-.1894-.6434-.2683-1.2157-.2368h-9.4199c-.5668.158-.9625.4196-1.187.785-.337.5483-.2885.509-.2088 1.4645.0796.9555 3.2382 40.7407 3.4245 41.7426.031.1664.067.557.4288.8138.3617.2567.6723.175 1.5405.175h8.1056c.6283.0049 1.0812-.0888 1.3586-.2811.2774-.1923.597-.6342.9589-1.3255l15.4047-25.3525c.6116-.95 1.2158-1.3686 1.8127-1.2558.8954.1693.8954.624.8954 1.8735 0 1.2496.763 25.0298.763 25.0298s-.0503.6584.253.9405c.3905.3633 1.0346.2994 1.7393.2994.7047 0 8.3305.0717 8.3305.0717s.9154-.0525 1.308-.4845c.5133-.5648 1.1484-1.4938 1.9055-2.787 17.6986-26.6232 26.5901-40.0997 26.6746-40.4296.1267-.4947-.0768-.8114-.364-1.043-.2872-.2315-.5015-.2368-1.4691-.2368h-8.8068c-.4463 0-.7978.1144-1.0545.3433-.2567.2289-.5777.6369-.9632 1.224L246.0937 54.106c-.3468.4976-.8007.7463-1.3617.7463-.561 0-.8503-.2487-.8678-.7463l-.8174-27.9778c-.0736-.2667-.2559-.4317-.5468-.495-.291-.0632-1.024-.0903-2.199-.081h-5.699c-.3867 0-.7233.1144-1.0097.3433s-.5408.541-.7634.9365l-3.6861 6.2005z"/><path d="M330.5458 25.5447c.8685 0 1.4114.1092 1.6285.3275.2171.218.3257.6541.3257 1.3082h0l-12.24 40.9008c0 .654-.1086 1.0902-.3257 1.3082-.2171.218-.5429.327-.9771.327h0-9.1627c-.2172 0-.4343-.109-.6515-.327-.217-.218-.3257-.436-.3257-.6541.68-1.9624.9115-3.0525.6943-3.2706-.3257-.327-.4993-.3405-.977-.327-.4779.0135-2.117 1.0463-2.9743 1.6352-6.1885 4.2518-10.6627 5.3716-16.5254 3.4092-9.2025-3.0802-9.2025-15.2905 0-22.0136 3.1919-2.332 7.4055-4.9435 10.6626-4.9435 2.9367 0 13.2726-.0153 15.5423-.0183l.4347-.0006c.4343 0 .6514-.327.6514-.9811h0l2.04-5.5411c0-.6541-.1085-1.0902-.3257-1.3082-.2171-.218-.5428-.3271-.9771-.3271h0-23.1682c-.4342 0-.76-.109-.977-.327-.2172-.218-.3258-.5451-.3258-.9812h0l2.04-6.887c-.0013-.4347.1072-.7618.3257-.9812.2054-.2062 10.6996-.315 31.4825-.3265zM297.219 52.9853c-5.2452 6.385-1.485 8.316-.4662 8.8698 1.1007.5983 3.0856.6899 4.8885.6899 3.4716 0 6.5239-1.6638 9.1567-4.9913 1.548-2.607 2.3219-4.2707 2.3219-4.9914 0-.4436-.1085-.7764-.3255-.9982-7.299-1.5847-12.4907-1.111-15.5754 1.4212z"/><path stroke-linejoin="round" d="M359.5806 25.304h-4.918c-.5958 0-1.0525.1066-1.37.3198-.3176.2132-.5932.7637-.8268 1.6514l-11.8877 40.8004c-.1294.5374-.098.9048.0943 1.1023.2886.2962.5067.3676 2.0505.3676h7.3174c.453-.0048.8085-.0878 1.0664-.249.2578-.1612.5164-.5682.7757-1.221l6.966-23.22c2.0258-4.9214 4.3472-7.9032 6.964-8.9455 3.9254-1.5635 5.5518-1.2455 6.5465-1.2455.9946 0 4.407.2462 4.407.2462s.6357.071 1.0833-.4563c.1377-.1622.3301-.6672.5773-1.515l2.0345-7.1656s.195-.5911-.287-1.0162c-.1888-.1664-1.0648-.2071-1.7475-.2071h-6.0676c-2.0834-.0696-4.1062.5834-6.0682 1.959-1.962 1.3756-3.225 2.8511-3.789 4.4267l1.0815-4.4267c.0722-.3773.0143-.6725-.1734-.8857-.1878-.2132-.5508-.3198-1.089-.3198h-2.7402z"/><path d="M417.5415 24.7209c8.2488.2601 13.6145 2.6905 16.0972 7.2911 2.4827 4.6006 2.3462 10.7232-.4094 18.3676-.142.386-.4792.7483-1.0116 1.0867-.7987.5076-2.6893.355-3.0827.355h-27.0195 0c-.7386 0-1.3627.195-1.8721.5848-.5094.39-.7442 1.0561-.7044 1.9986-.091 4.1938 1.8912 6.6913 5.9465 7.4925 4.0553.8011 8.5464-.5189 13.4732-3.96.5165-.5357.9548-.866 1.315-.9911.36-.1251.724-.1877 1.0917-.1877h6.6856c.8855 0 1.4306.1992 1.6354.5977.205.3985.1025.9448-.3072 1.639-2.2956 3.5146-5.556 6.3134-9.7811 8.3963-4.2252 2.083-8.26 3.21-12.1047 3.3812-4.8865.4311-8.9805-.2019-12.2818-1.899-3.3013-1.6972-5.5618-4.2728-6.7817-7.727-1.9861-9.158.2744-17.5186 6.7817-25.0814 6.5073-7.5629 13.9506-11.3443 22.3299-11.3443zm-10.1378 11.8903c-3.6221 3.5398-5.098 5.9248-4.4275 7.1551.3843.7053 1.453.4798 3.2272.4821l.4524.0005c.7906.0005 1.9876.0005 3.591 0l10.2873-.0005c.8051.0832 1.5614-.1308 2.2686-.642.7072-.5113.8263-2.1158.3574-4.8137-.8046-3.0923-3.0068-4.8179-6.6065-5.1766-3.5996-.3587-6.6496.6397-9.15 2.9951z"/><path d="M502.5415 24.7209c8.2488.2601 13.6145 2.6905 16.0972 7.2911 2.4827 4.6006 2.3462 10.7232-.4094 18.3676-.142.386-.4792.7483-1.0116 1.0867-.7987.5076-2.6893.355-3.0827.355h-27.0195 0c-.7386 0-1.3627.195-1.8721.5848-.5094.39-.7442 1.0561-.7044 1.9986-.091 4.1938 1.8912 6.6913 5.9465 7.4925 4.0553.8011 8.5464-.5189 13.4732-3.96.5165-.5357.9548-.866 1.315-.9911.36-.1251.724-.1877 1.0917-.1877h6.6856c.8855 0 1.4306.1992 1.6354.5977.205.3985.1025.9448-.3072 1.639-2.2956 3.5146-5.556 6.3134-9.7811 8.3963-4.2252 2.083-8.26 3.21-12.1047 3.3812-4.8865.4311-8.9805-.2019-12.2818-1.899-3.3013-1.6972-5.5618-4.2728-6.7817-7.727-1.9861-9.158.2744-17.5186 6.7817-25.0814 6.5073-7.5629 13.9506-11.3443 22.3299-11.3443zm-10.1378 11.8903c-3.6221 3.5398-5.098 5.9248-4.4275 7.1551.3843.7053 1.453.4798 3.2272.4821l.4524.0005c.7906.0005 1.9876.0005 3.591 0l10.2873-.0005c.8051.0832 1.5614-.1308 2.2686-.642.7072-.5113.8263-2.1158.3574-4.8137-.8046-3.0923-3.0068-4.8179-6.6065-5.1766-3.5996-.3587-6.6496.6397-9.15 2.9951z"/><path d="M567.2229 25.5544h-26.619c-.4481-.054-.7831.1365-1.005.5718-.2218.4353-.5364 1.4012-.9438 2.8976L527.5 67.9132c0 .6529.111 1.0882.3327 1.3058.2219.2176.4437.3265.6655.3265h8.9839c.4436 0 .7764-.1089.9982-.3265.2218-.2176.3327-.653.3327-1.3058l9.127-30.075c.2146-.7138.4329-1.2884.6547-1.7237.3327-.653 1.009-1.2144 1.6744-1.2144h9.681c1.7575 0 3.387.5891 4.8886 1.7674 2.2524 1.7674 2.3842 5.7411 2.3842 6.7205 0 .653-2.3662 8.7056-7.0984 24.158-.2218.8977-.2218 1.4554 0 1.673.0926.0909-.0159.2857.6496.2857.3327 0 8.427.0004 8.667 0 .3327 0 .9982-.3264 1.331-.6529.2218-.2176.442-.6529.6604-1.3058l7.7847-26.4432c.8474-5.7397-.2096-9.766-3.171-12.079-2.9613-2.313-5.9025-3.4694-8.8233-3.4694z"/><path d="M650.681 24.545c.4114 0 .4114.4938 0 1.4814h0L633.477 85.3716c-.282 1.005-.5721 1.697-.8703 2.076-.2981.3791-.9638.5529-1.997.5213h0-41.3087c-.786.0365-1.2874-.0387-1.504-.2258-.5095-.4397-.2088-1.2905-.2088-1.2905l1.7128-5.9817c.266-.7216.5267-1.17.7822-1.3454.2556-.1753.73-.2791 1.423-.3114h29.6447c1.0285-.0156 1.7395-.1113 2.133-.2873.3934-.176.8112-.585 1.2534-1.227h0l2.5064-8.9335c.5729-1.3116.6742-2.0933.304-2.3452-.9822-.6682-1.9968.3444-2.0562.3778-10.0096 5.6236-17.4179 5.3267-23.0082 1.9674-6.0441-3.632-8.1576-9.8305-6.3404-18.5952 2.0108-6.9561 5.1305-12.6346 9.3591-17.0356 4.2287-4.401 10.5372-7.1312 18.9255-8.1905h0zm-17.7444 9.5908h-8.4704c-6.6845.0236-11.6819 3.5028-14.992 10.4376-3.3101 6.9348-2.5438 12.0942 2.2989 15.478 4.858 1.732 9.3335 1.1935 13.4263-1.6158 4.0929-2.8093 6.7852-6.6165 8.0768-11.4218l3.3175-11.5256c.1132-.5222.0635-.8825-.149-1.081-.2126-.1985-1.382-.289-3.5081-.2714z"/><g transform="translate(657.5 .545)"><path stroke-linecap="round" stroke-linejoin="round" d="M18.7328 25h-4.4959c-.751 0-1.202.2696-1.3528.8088-.1054.2326-.279.6449-.5205 1.2367L0 67.9545c0 .6819.1249 1.1364.3747 1.3637.3746.3409 1.124.6818 1.4986.6818h8.2424c.7493-.2273 1.2489-.4545 1.4986-.6818.2498-.2273.4996-.6818.7493-1.3637L24.5381 27.017c.1261-.1972.1261-.5381 0-1.0227-.2498-.4546-.8112-.786-1.6841-.9943h-4.1212z"/><path d="M28.4561 6.2234c1.1334 1.1 1.4893 2.4206 1.3163 3.7442-.2215 1.6948-1.255 3.3781-2.606 4.6893-1.3524 1.3127-3.272 2.2935-5.1825 2.5886-1.5712.2426-3.152.024-4.3464-.9639-1.1504-.9515-1.4716-2.3892-1.2924-3.8506.2233-1.8222 1.2154-3.7126 2.6103-5.0202 1.4246-1.3355 3.3486-2.31 5.2514-2.5155 1.5378-.1661 3.0678.1814 4.2493 1.3281z"/></g><path d="M734.2229 25.5544h-26.619c-.4481-.054-.7831.1365-1.005.5718-.2218.4353-.5364 1.4012-.9438 2.8976L694.5 67.9132c0 .6529.111 1.0882.3327 1.3058.2219.2176.4437.3265.6655.3265h8.9839c.4436 0 .7764-.1089.9982-.3265.2218-.2176.3327-.653.3327-1.3058l9.127-30.075c.2146-.7138.4329-1.2884.6547-1.7237.3327-.653 1.009-1.2144 1.6744-1.2144h9.681c1.7575 0 3.387.5891 4.8886 1.7674 2.2524 1.7674 2.3842 5.7411 2.3842 6.7205 0 .653-2.3662 8.7056-7.0984 24.158-.2218.8977-.2218 1.4554 0 1.673.0926.0909-.0159.2857.6496.2857.3327 0 8.427.0004 8.667 0 .3327 0 .9982-.3264 1.331-.6529.2218-.2176.442-.6529.6604-1.3058l7.7847-26.4432c.8474-5.7397-.2096-9.766-3.171-12.079-2.9613-2.313-5.9025-3.4694-8.8233-3.4694z"/><path d="M784.5415 24.7209c8.2488.2601 13.6145 2.6905 16.0972 7.2911 2.4827 4.6006 2.3462 10.7232-.4094 18.3676-.142.386-.4792.7483-1.0116 1.0867-.7987.5076-2.6893.355-3.0827.355h-27.0195 0c-.7386 0-1.3627.195-1.8721.5848-.5094.39-.7442 1.0561-.7044 1.9986-.091 4.1938 1.8912 6.6913 5.9465 7.4925 4.0553.8011 8.5464-.5189 13.4732-3.96.5165-.5357.9548-.866 1.315-.9911.36-.1251.724-.1877 1.0917-.1877h6.6856c.8855 0 1.4306.1992 1.6354.5977.205.3985.1025.9448-.3072 1.639-2.2956 3.5146-5.556 6.3134-9.7811 8.3963-4.2252 2.083-8.26 3.21-12.1047 3.3812-4.8865.4311-8.9805-.2019-12.2818-1.899-3.3013-1.6972-5.5618-4.2728-6.7817-7.727-1.9861-9.158.2744-17.5186 6.7817-25.0814 6.5073-7.5629 13.9506-11.3443 22.3299-11.3443zm-10.1378 11.8903c-3.6221 3.5398-5.098 5.9248-4.4275 7.1551.3843.7053 1.453.4798 3.2272.4821l.4524.0005c.7906.0005 1.9876.0005 3.591 0l10.2873-.0005c.8051.0832 1.5614-.1308 2.2686-.642.7072-.5113.8263-2.1158.3574-4.8137-.8046-3.0923-3.0068-4.8179-6.6065-5.1766-3.5996-.3587-6.6496.6397-9.15 2.9951z"/><path d="M841.5415 24.7209c8.2488.2601 13.6145 2.6905 16.0972 7.2911 2.4827 4.6006 2.3462 10.7232-.4094 18.3676-.142.386-.4792.7483-1.0116 1.0867-.7987.5076-2.6893.355-3.0827.355h-27.0195 0c-.7386 0-1.3627.195-1.8721.5848-.5094.39-.7442 1.0561-.7044 1.9986-.091 4.1938 1.8912 6.6913 5.9465 7.4925 4.0553.8011 8.5464-.5189 13.4732-3.96.5165-.5357.9548-.866 1.315-.9911.36-.1251.724-.1877 1.0917-.1877h6.6856c.8855 0 1.4306.1992 1.6354.5977.205.3985.1025.9448-.3072 1.639-2.2956 3.5146-5.556 6.3134-9.7811 8.3963-4.2252 2.083-8.26 3.21-12.1047 3.3812-4.8865.4311-8.9805-.2019-12.2818-1.899-3.3013-1.6972-5.5618-4.2728-6.7817-7.727-1.9861-9.158.2744-17.5186 6.7817-25.0814 6.5073-7.5629 13.9506-11.3443 22.3299-11.3443zm-10.1378 11.8903c-3.6221 3.5398-5.098 5.9248-4.4275 7.1551.3843.7053 1.453.4798 3.2272.4821l.4524.0005c.7906.0005 1.9876.0005 3.591 0l10.2873-.0005c.8051.0832 1.5614-.1308 2.2686-.642.7072-.5113.8263-2.1158.3574-4.8137-.8046-3.0923-3.0068-4.8179-6.6065-5.1766-3.5996-.3587-6.6496.6397-9.15 2.9951z"/><path stroke-linejoin="round" d="M886.5806 25.304h-4.918c-.5958 0-1.0525.1066-1.37.3198-.3176.2132-.5932.7637-.8268 1.6514l-11.8877 40.8004c-.1294.5374-.098.9048.0943 1.1023.2886.2962.5067.3676 2.0505.3676h7.3174c.453-.0048.8085-.0878 1.0664-.249.2578-.1612.5164-.5682.7757-1.221l6.966-23.22c2.0258-4.9214 4.3472-7.9032 6.964-8.9455 3.9254-1.5635 5.5518-1.2455 6.5465-1.2455.9946 0 4.407.2462 4.407.2462s.6357.071 1.0833-.4563c.1377-.1622.3301-.6672.5773-1.515l2.0345-7.1656s.195-.5911-.287-1.0162c-.1888-.1664-1.0648-.2071-1.7475-.2071h-6.0676c-2.0834-.0696-4.1062.5834-6.0682 1.959-1.962 1.3756-3.225 2.8511-3.789 4.4267l1.0815-4.4267c.0722-.3773.0143-.6725-.1734-.8857-.1878-.2132-.5508-.3198-1.089-.3198h-2.7402z"/></g><g fill="#0EAAA7" transform="translate(12)"><path d="M864.5211 25.5455h-4.8761c-.5908 0-1.0437.1074-1.3585.3222-.3149.2148-.588.7695-.8197 1.664L845.68 68.6429c-.1283.5415-.0971.9117.0936 1.1107.286.2985.5023.3703 2.033.3703h7.2553c.4492-.0048.8016-.0884 1.0573-.2508.2556-.1624.512-.5725.7692-1.2302l6.9067-23.397c2.0087-4.9589 4.3104-7.9634 6.905-9.0137 3.892-1.5754 5.5046-1.255 6.4908-1.255.9863 0 4.3697.2482 4.3697.2482s.6302.0715 1.074-.4598c.1366-.1634.3273-.6723.5724-1.5266l2.0172-7.2201s.1934-.5957-.2846-1.024c-.1871-.1677-1.0556-.2087-1.7326-.2087h-6.016c-2.0658-.0701-4.0713.5879-6.0167 1.974-1.9454 1.386-3.1977 2.8728-3.757 4.4603l1.0725-4.4604c.0715-.3801.0142-.6776-.172-.8924-.1862-.2148-.546-.3222-1.0797-.3222h-2.717z"/><path d="M820.6716 24.7509c8.077.2601 13.331 2.6905 15.7619 7.2911 2.431 4.6006 2.2973 10.7232-.401 18.3676-.1389.386-.469.7483-.9904 1.0867-.782.5076-2.6333.355-3.0185.355H805.567c-.7233 0-1.3344.195-1.8332.5848-.4988.39-.7287 1.0561-.6897 1.9986-.089 4.1938 1.8518 6.6913 5.8226 7.4925 3.9708.8011 8.3683-.5189 13.1925-3.96.5058-.5357.935-.866 1.2875-.9911.3526-.1251.709-.1877 1.0691-.1877h6.5463c.867 0 1.4008.1992 1.6014.5977.2006.3985.1003.9448-.301 1.639-2.2477 3.5146-5.4401 6.3134-9.5773 8.3963-4.137 2.083-8.0879 3.21-11.8524 3.3812-4.7848.4311-8.7934-.2019-12.026-1.899-3.2325-1.6972-5.446-4.2728-6.6404-7.727-1.9447-9.158.2687-17.5186 6.6405-25.0814 6.3717-7.5629 13.6599-11.3443 21.8646-11.3443zm-9.9266 11.8903c-3.5466 3.5398-4.9917 5.9248-4.3352 7.1551.3763.7053 1.4227.4798 3.16.4821l.2993.0003c.8158.0008 2.1377.0008 3.9657 0l9.767-.0003c.7885.0832 1.529-.1308 2.2214-.642.6925-.5113.8092-2.1158.35-4.8137-.7879-3.0923-2.9442-4.8179-6.4688-5.1766-3.5247-.3587-6.5112.6397-8.9594 2.9951z"/><path d="M765.6716 24.7509c8.077.2601 13.331 2.6905 15.7619 7.2911 2.431 4.6006 2.2973 10.7232-.401 18.3676-.1389.386-.469.7483-.9904 1.0867-.782.5076-2.6333.355-3.0185.355H750.567c-.7233 0-1.3344.195-1.8332.5848-.4988.39-.7287 1.0561-.6897 1.9986-.089 4.1938 1.8518 6.6913 5.8226 7.4925 3.9708.8011 8.3683-.5189 13.1925-3.96.5058-.5357.935-.866 1.2875-.9911.3526-.1251.709-.1877 1.0691-.1877h6.5463c.867 0 1.4008.1992 1.6014.5977.2006.3985.1003.9448-.301 1.639-2.2477 3.5146-5.4401 6.3134-9.5773 8.3963-4.137 2.083-8.0879 3.21-11.8524 3.3812-4.7848.4311-8.7934-.2019-12.026-1.899-3.2325-1.6972-5.446-4.2728-6.6404-7.727-1.9447-9.158.2687-17.5186 6.6405-25.0814 6.3717-7.5629 13.6599-11.3443 21.8646-11.3443zm-9.9266 11.8903c-3.5466 3.5398-4.9917 5.9248-4.3352 7.1551.3763.7053 1.4227.4798 3.16.4821l.2993.0003c.8158.0008 2.1377.0008 3.9657 0l9.767-.0003c.7885.0832 1.529-.1308 2.2214-.642.6925-.5113.8092-2.1158.35-4.8137-.7879-3.0923-2.9442-4.8179-6.4688-5.1766-3.5247-.3587-6.5112.6397-8.9594 2.9951z"/><path d="M716.6723 25.5545h-26.25c-.442-.0544-.7723.1373-.991.575-.2188.4379-.529 1.4094-.9308 2.9145L677.5 68.1595c0 .6567.1094 1.0945.3281 1.3134.2188.2189.4375.3283.6563.3283h8.8593c.4375 0 .7657-.1094.9844-.3283.2188-.219.3282-.6567.3282-1.3134l9.0004-30.2498c.2117-.718.427-1.296.6457-1.7337.328-.6568.995-1.2215 1.6512-1.2215h9.5469c1.733 0 3.34.5925 4.8207 1.7777 2.2212 1.7776 2.3511 5.7745 2.3511 6.7595 0 .6568-2.3333 8.7562-7 24.2985-.2187.9029-.2187 1.4638 0 1.6827.0914.0914-.0156.2874.6407.2874.3281 0 8.31.0004 8.5468 0 .3282 0 .9844-.3284 1.3125-.6567.2188-.219.4359-.6567.6514-1.3134l7.6768-26.597c.8356-5.773-.2067-9.8228-3.127-12.1492-2.9204-2.3263-5.8207-3.4895-8.7012-3.4895z"/><g transform="translate(641.5 .545)"><path d="M18.1818 25h-4.3636c-.729 0-1.1666.2696-1.313.8088-.1024.2326-.2708.6449-.5052 1.2367L0 67.9545c0 .6819.1212 1.1364.3636 1.3637.3637.3409 1.091.6818 1.4546.6818h8c.7273-.2273 1.2121-.4545 1.4545-.6818.2425-.2273.4849-.6818.7273-1.3637L23.8164 27.017c.1224-.1972.1224-.5381 0-1.0227-.2425-.4546-.7873-.786-1.6346-.9943h-4z"/><path d="M16.5002 17.0523c2.9146 2.4838 7.8096 1.056 10.5433-1.6777 2.7337-2.7337 4.1806-6.9397 1.2517-9.8687-2.929-2.9289-7.6917-1.596-10.561 1.1754-2.8694 2.7714-4.1487 7.8871-1.234 10.371z"/></g><path d="M634.9549 24.82c.4049 0 .4049.4938 0 1.4814l-16.9354 59.3452c-.2776 1.005-.5632 1.697-.8567 2.076-.2935.3791-.9487.5529-1.9658.5213h-40.6632c-.7738.0365-1.2673-.0387-1.4806-.2258-.5014-.4397-.2054-1.2905-.2054-1.2905l1.686-5.9817c.2618-.7216.5184-1.17.77-1.3454.2515-.1753.7185-.2791 1.4008-.3114h29.1815c1.0123-.0156 1.7122-.1113 2.0995-.2873s.7986-.585 1.2339-1.227l2.4672-8.9335c.564-1.3116.6637-2.0933.2992-2.3452-.9668-.6682-1.9656.3444-2.024.3778-9.8531 5.6236-17.1457 5.3267-22.6487 1.9674-5.9497-3.632-8.0301-9.8305-6.2413-18.5952 1.9793-6.9561 5.0503-12.6346 9.2129-17.0356 4.1625-4.401 10.3725-7.1312 18.6298-8.1905zm-17.4673 9.5908h-8.338c-6.58.0236-11.4993 3.5028-14.7577 10.4376-3.2585 6.9348-2.5041 12.0942 2.2629 15.478 4.7821 1.732 9.1877 1.1935 13.2166-1.6158s6.679-6.6165 7.9506-11.4218l3.2656-11.5256c.1114-.5222.0626-.8825-.1467-1.081-.2092-.1985-1.3603-.289-3.4533-.2714z"/><path d="M553.6723 25.5545h-26.25c-.442-.0544-.7723.1373-.991.575-.2188.4379-.529 1.4094-.9308 2.9145L514.5 68.1595c0 .6567.1094 1.0945.3281 1.3134.2188.2189.4375.3283.6563.3283h8.8593c.4375 0 .7657-.1094.9844-.3283.2188-.219.3282-.6567.3282-1.3134l9.0004-30.2498c.2117-.718.427-1.296.6457-1.7337.328-.6568.995-1.2215 1.6512-1.2215h9.5469c1.733 0 3.34.5925 4.8207 1.7777 2.2212 1.7776 2.3511 5.7745 2.3511 6.7595 0 .6568-2.3333 8.7562-7 24.2985-.2187.9029-.2187 1.4638 0 1.6827.0914.0914-.0156.2874.6407.2874.3281 0 8.31.0004 8.5468 0 .3282 0 .9844-.3284 1.3125-.6567.2188-.219.4359-.6567.6514-1.3134l7.6768-26.597c.8356-5.773-.2067-9.8228-3.127-12.1492-2.9204-2.3263-5.8207-3.4895-8.7012-3.4895z"/><path d="M489.6716 24.7509c8.077.2601 13.331 2.6905 15.7619 7.2911 2.431 4.6006 2.2973 10.7232-.401 18.3676-.1389.386-.469.7483-.9904 1.0867-.782.5076-2.6333.355-3.0185.355H474.567c-.7233 0-1.3344.195-1.8332.5848-.4988.39-.7287 1.0561-.6897 1.9986-.089 4.1938 1.8518 6.6913 5.8226 7.4925 3.9708.8011 8.3683-.5189 13.1925-3.96.5058-.5357.935-.866 1.2875-.9911.3526-.1251.709-.1877 1.0691-.1877h6.5463c.867 0 1.4008.1992 1.6014.5977.2006.3985.1003.9448-.301 1.639-2.2477 3.5146-5.4401 6.3134-9.5773 8.3963-4.137 2.083-8.0879 3.21-11.8524 3.3812-4.7848.4311-8.7934-.2019-12.026-1.899-3.2325-1.6972-5.446-4.2728-6.6404-7.727-1.9447-9.158.2687-17.5186 6.6405-25.0814 6.3717-7.5629 13.6599-11.3443 21.8646-11.3443zm-9.9266 11.8903c-3.5466 3.5398-4.9917 5.9248-4.3352 7.1551.3763.7053 1.4227.4798 3.16.4821l.2993.0003c.8158.0008 2.1377.0008 3.9657 0l9.767-.0003c.7885.0832 1.529-.1308 2.2214-.642.6925-.5113.8092-2.1158.35-4.8137-.7879-3.0923-2.9442-4.8179-6.4688-5.1766-3.5247-.3587-6.5112.6397-8.9594 2.9951z"/><path d="M406.6716 24.7509c8.077.2601 13.331 2.6905 15.7619 7.2911 2.431 4.6006 2.2973 10.7232-.401 18.3676-.1389.386-.469.7483-.9904 1.0867-.782.5076-2.6333.355-3.0185.355H391.567c-.7233 0-1.3344.195-1.8332.5848-.4988.39-.7287 1.0561-.6897 1.9986-.089 4.1938 1.8518 6.6913 5.8226 7.4925 3.9708.8011 8.3683-.5189 13.1925-3.96.5058-.5357.935-.866 1.2875-.9911.3526-.1251.709-.1877 1.0691-.1877h6.5463c.867 0 1.4008.1992 1.6014.5977.2006.3985.1003.9448-.301 1.639-2.2477 3.5146-5.4401 6.3134-9.5773 8.3963-4.137 2.083-8.0879 3.21-11.8524 3.3812-4.7848.4311-8.7934-.2019-12.026-1.899-3.2325-1.6972-5.446-4.2728-6.6404-7.727-1.9447-9.158.2687-17.5186 6.6405-25.0814 6.3717-7.5629 13.6599-11.3443 21.8646-11.3443zm-9.9266 11.8903c-3.5466 3.5398-4.9917 5.9248-4.3352 7.1551.3763.7053 1.4227.4798 3.16.4821l.2993.0003c.8158.0008 2.1377.0008 3.9657 0l9.767-.0003c.7885.0832 1.529-.1308 2.2214-.642.6925-.5113.8092-2.1158.35-4.8137-.7879-3.0923-2.9442-4.8179-6.4688-5.1766-3.5247-.3587-6.5112.6397-8.9594 2.9951z"/><path d="M349.5211 25.5455h-4.8761c-.5908 0-1.0437.1074-1.3585.3222-.3149.2148-.588.7695-.8197 1.664L330.68 68.6429c-.1283.5415-.0971.9117.0936 1.1107.286.2985.5023.3703 2.033.3703h7.2553c.4492-.0048.8016-.0884 1.0573-.2508.2556-.1624.512-.5725.7692-1.2302l6.9067-23.397c2.0087-4.9589 4.3104-7.9634 6.905-9.0137 3.892-1.5754 5.5046-1.255 6.4908-1.255.9863 0 4.3697.2482 4.3697.2482s.6302.0715 1.074-.4598c.1366-.1634.3273-.6723.5724-1.5266l2.0172-7.2201s.1934-.5957-.2846-1.024c-.1871-.1677-1.0556-.2087-1.7326-.2087h-6.016c-2.0658-.0701-4.0713.5879-6.0167 1.974-1.9454 1.386-3.1977 2.8728-3.757 4.4603l1.0725-4.4604c.0715-.3801.0142-.6776-.172-.8924-.1862-.2148-.546-.3222-1.0797-.3222h-2.717z"/><path d="M322.584 25.5447c.8516 0 1.3838.1092 1.5967.3275.2129.218.3193.6541.3193 1.3082l-12 40.9008c0 .654-.1064 1.0902-.3193 1.3082-.2129.218-.5322.327-.958.327h-8.983c-.213 0-.4258-.109-.6387-.327-.2129-.218-.3193-.436-.3193-.6541.6667-1.9624.8936-3.0525.6807-3.2706-.3193-.327-.4896-.3405-.958-.327-.4684.0135-2.0755 1.0463-2.916 1.6352-6.067 4.2518-10.4535 5.3716-16.2012 3.4092-9.0221-3.0802-9.0221-15.2905 0-22.0136 3.1293-2.332 7.2603-4.9435 10.4535-4.9435 2.8739 0 12.9755-.0153 15.2253-.0183l.4384-.0006c.4258 0 .6387-.327.6387-.9811l2-5.5411c0-.6541-.1065-1.0902-.3194-1.3082-.2128-.218-.5322-.3271-.958-.3271H286.652c-.4258 0-.745-.109-.958-.327-.2128-.218-.3193-.5451-.3193-.9812l2-6.887c-.0013-.4347.1051-.7618.3193-.9812.2014-.2062 10.4898-.315 30.8652-.3265zM289.911 52.9853c-5.1424 6.385-1.4559 8.316-.457 8.8698 1.079.5983 3.025.6899 4.7925.6899 3.4036 0 6.396-1.6638 8.9772-4.9913 1.5176-2.607 2.2764-4.2707 2.2764-4.9914 0-.4436-.1064-.7764-.319-.9982-7.156-1.5847-12.246-1.111-15.2701 1.4212z"/><path d="M222.6316 32.9876l-12.394 20.565c-.4346.7133-.9385 1.0699-1.5118 1.0699-.5732 0-.8772-.3566-.912-1.0699l-1.091-26.713c0-.5015-.117-.8462-.3509-1.034-.234-.188-.632-.2662-1.194-.235h-9.253c-.5566.1566-.9453.416-1.166.7785-.3309.5435-.2832.5045-.205 1.452.0782.9473 3.1808 40.3954 3.3638 41.3888.0304.165.0658.5523.4212.8069.3553.2546.6604.1735 1.5132.1735h7.9618c.6171.0049 1.062-.088 1.3345-.2787.2725-.1907.5864-.6288.9418-1.3143l15.1315-25.1376c.6007-.942 1.1943-1.357 1.7806-1.2451.8794.1678.8794.6186.8794 1.8576 0 1.239.7495 24.8177.7495 24.8177s-.0494.6528.2484.9325c.3837.3602 1.0164.2968 1.7086.2968.6921 0 8.1827.0711 8.1827.0711s.8992-.052 1.2848-.4804c.5042-.56 1.128-1.4811 1.8717-2.7634 17.3846-26.3975 26.1184-39.7598 26.2014-40.0869.1244-.4905-.0754-.8045-.3575-1.034-.2821-.2297-.4927-.235-1.443-.235h-8.6507c-.4383 0-.7836.1135-1.0357.3404-.2522.227-.5675.6315-.9461 1.2137l-16.4139 26.7578c-.3407.4933-.7865.74-1.3376.74-.551 0-.8352-.2467-.8524-.74l-.8029-27.7408c-.0723-.2644-.2513-.428-.5371-.4907-.2858-.0628-1.0058-.0895-2.16-.0804h-5.5978c-.38 0-.7105.1135-.9918.3404-.2814.227-.5313.5365-.75.9286l-3.6207 6.148zm-54.4201-8.5378c-.0982.4456-.4053.7789-.9211.9998-.7739.3314-1.477.2128-1.8539.2128h-2.928c-2.1116-.0312-3.305.0608-3.5804.2762-.2753.2154-.5384.76-.7894 1.6337l-1.6433 5.6192c-.2012.5-.2515.8693-.151 1.1075.151.3575 2.373.483 3.2887.483h4.1352c.5243-.0251.9023.1512 1.1342.529.1908.5223-.0422.9062-.5404 2.541-.3322 1.09-3.2828 11.3815-8.852 30.8746-.1302.4968-.0875.8666.1284 1.1095.3237.3644 1.7858.2703 2.3213.2703h6.5399c.6752.0313 1.197-.0977 1.5652-.387.3683-.2893.6464-.8107.8344-1.5641 6.0358-21.0635 9.0856-31.6854 9.1494-31.8657.0957-.2705.4128-1.1312 1.0076-1.3868.4834-.2078 1.1571-.1208 2.9324-.1208h4.714c.4521.0066.8505-.0723 1.1952-.2365.517-.2465.5977-.7672.8005-1.462.2029-.6946 1.6422-5.5818 1.7572-6.1186.115-.5369.0228-.9114-.202-1.1423-.2248-.231-.3835-.2018-1.1063-.2018h-6.1585c-.7668 0-1.241.0909-1.5531-.5334-.3121-.6243.3588-2.1424.8067-4.0068.2521-1.0497.5837-2.2941-1.5276-2.2941h-7.3118c-.8744-.093-1.4463.0212-1.7155.3424-.2693.3211-.4584.724-.5675 1.2085-.6185 2.018-.455 2.0547-.9085 4.1124zm-26.1934-18.75h-14.5707c-.7447 0-1.3074.1298-1.6882.3894-.3809.2596-.6964 1.0209-.9466 2.2837l-4.6011 16.077c-.0982.4455-.4053.7788-.9211.9997-.7739.3314-1.477.2128-1.8539.2128h-2.928c-.7783-.0312-1.305.0608-1.5804.2762-.2753.2154-.5384.76-.7894 1.6337l-1.6433 5.6192c-.2012.5-.2515.8693-.151 1.1075.151.3575.373.483 1.2887.483h4.1352c.5243-.0251.9023.1512 1.1342.529.1908.5223-.0422.9062-.5404 2.541-.3322 1.09-3.2828 11.3815-8.852 30.8746-.1302.4968-.0875.8666.1284 1.1095.3237.3644 1.7858.2703 2.3213.2703h6.5399c.6752.0313 1.197-.0977 1.5652-.387.3683-.2893.6464-.8107.8344-1.5641 6.0358-21.0635 9.0856-31.6854 9.1494-31.8657.0957-.2705.4128-1.1312 1.0076-1.3868.4834-.2078 1.1571-.1208 2.9324-.1208h6.714c.4521.0066.8505-.0723 1.1952-.2365.517-.2465.5977-.7672.8005-1.462.2029-.6946 1.6422-5.5818 1.7572-6.1186.115-.5369.0228-.9114-.202-1.1423-.2248-.231-.3835-.2018-1.1063-.2018h-8.1585c-.7668 0-1.241.0909-1.5531-.5334-.3121-.6243 1.8079-6.6897 2.2557-8.554.448-1.8644 1.7342-1.6148 2.3805-1.6148h9.3136c.3345.0257.683-.0896 1.0457-.346.3626-.2565.5995-.6125.711-1.0682l1.7966-6.4334s.1789-.6568-.1258-.9818c-.3047-.3249-.6366-.3894-2.6898-.3894h-4.105z"/><path d="M81.7547 24.525C92.3397 24.5155 101 28.8866 101 40.4833c0 11.5966-8.6604 26.877-25.0189 30.2365C59.6226 74.0794 50 66.5203 50 55.6016c0-10.9188 9-31.0559 31.7547-31.0766zm-3.434 11.0001C69.6416 35.5251 64 45.8184 64 51.394c0 5.5756 4.3396 9.4355 11.717 7.72C83.0943 57.3983 87 49.5957 87 43.6739c0-5.9216-3.9057-8.1488-8.6792-8.1488z"/><path d="M38 35.5455c.6667-.3334 2.1667-1.8334 4.5-4.5.6667-1 .8333-1.8334.5-2.5-.2274-.4548-3-3-12.5-3.5-6.3333-.3334-11.8333 1.1666-16.5 4.5-5.3333 5-7.8333 9.3333-7.5 13 .3333 3.6666 2 6 5 7l.0834.0303c.215.1466 1.5206.6365 3.9166 1.4697 2.396.833 4.896 1.6664 7.5 2.5 2 1 3 2.1666 3 3.5 0 1.3333-1 2.6666-3 4-2.3333 1-5 1.3333-8 1-3-.3334-5.5-1-7.5-2-.3333-.3334-.8333-.5-1.5-.5s-1.1667.1666-1.5.5l-4 4.5c-.3333.6666-.5 1.1666-.5 1.5 0 .3333.3333.6666 1 1 3.6667 3 9.3333 4.1666 17 3.5 4.6012-.4001 9.7393-1.8385 13.5-5 1.6704-1.4043 3.6704-4.2376 6-8.5.6667-3.3334.6667-5.6667 0-7-1-2-2.5-4-7-5.5s-14.5-3-11-8 12.5-2.5 14-2 3.5 1.5 4.5 1z"/></g></g></svg>