<svg xmlns="http://www.w3.org/2000/svg" width="803" height="101" viewBox="0 0 803 101"><g fill="none" fill-rule="evenodd" transform="translate(1 .5)"><g stroke="#FFF" stroke-width="2"><path d="M742.8084 1.5c1.044.0224 1.7249.1899 2.0425.5024.3177.3126.488.9825.5107 2.0097h0v26.6283c0 .335.851.5024 2.5531.5024h14.8084c8.146 0 14.9265 2.0391 20.4254 5.0242C793.0208 41.526 798.638 50.9046 800 64.3025c-.3408 13.3979-5.6175 23.2788-15.8302 29.6428-6.0112 3.7458-16.3403 5.5266-23.4892 4.0194-3.3959-.716-7.6511-3.0607-12.7659-7.034-.6808-.6698-1.3616-.8373-2.0425-.5023-.6808.3349-1.0213.8373-1.0213 1.5072h0v3.517c0 .6698-.1702 1.1723-.5106 1.5072-.3404.335-.851.5024-1.5319.5024h0-11.7446c-1.3617 0-2.2127-.1674-2.5532-.5024C728 96.4574 728 95.4526 728 94.9501l.0012-91.3143c.0079-.7625.0669-1.198.5094-1.6334.3405-.335 1.0213-.5024 2.0426-.5024h0zm21.7194 43h-9.7639c-2.3981 0-4.625.8328-6.6806 2.4985C746.0278 48.664 745 50.4963 745 52.495h0v12.992c0 2.9813 1.5417 10.9933 6.1667 14.4911 4.625 3.4979 11.3392 4.7157 13.3611 4.4972 2.022-.2184 7.1945-.4997 12.3334-5.4966C780.287 75.6475 782 70.8172 782 64.4878c-.6851-6.6627-2.398-11.493-5.1388-14.4912-2.7408-2.9981-6.8519-4.8303-12.3334-5.4966h0z"/><g transform="translate(696 .5)"><path stroke-linecap="round" stroke-linejoin="round" d="M11.7581 31H5.5763c-1.3738.3333-2.2323.8333-2.5758 1.5V94c0 1 .1717 1.6667.5152 2 .5151.5 1.5454 1 2.0606 1h11.3333c1.0303-.3333 1.7172-.6667 2.0606-1 .3435-.3333.6869-1 1.0303-2V34v-1.5c-.3434-.6667-1.202-1.1667-2.5757-1.5H11.758z"/><ellipse cx="11.001" cy="10.5" rx="10" ry="9.5"/></g><path d="M620.0005 65.5v29c.0362.976.2055 1.6427.508 2 .4537.5359 1.0159 1 2.0318 1s11.3902.0584 12.1907 0c.8006-.0584 1.016-.5 1.5239-1 .3386-.3333.508-1 .508-2v-23c.1653-.4393.3346-.7726.5079-1 .2599-.341.5651-.6854 1.5238-1h3.0477c.3386 0 .8466.3333 1.5239 1L665.2079 96l1.016 1c.5079.5 1.0158.5 3.0476.5h12.6987c1.016 0 1.8625-.3333 2.5398-1 1.0159-1 .508-2.5-2.0318-5-1.6932-1.6667-9.9897-10.8333-24.8895-27.5-.3386-.3333-.508-.8333-.508-1.5 0-1 22.8577-24.5 25.3975-27a2.5456 2.5456 0 00.134-.1425c.9176-1.0539.8662-2.7363-.134-3.3575-.6341-.3939-1.5239-.5-2.0318-.5h-14.7305c-.6773 0-1.1852.1667-1.5239.5-.3386.3333-6.942 7.6667-19.81 22l-1.5238 1.5c-.3386.3333-.6773.5-1.0159.5h-3.0477c-.3386 0-.6772-.1667-1.0159-.5-1.0159-1-1.0159-1-1.0159-3V4c0-.6667-.1693-1.1667-.508-1.5-.5079-.5-1.5238-.5-2.5397-.5h-10.6669c-1.3545 0-2.201.1667-2.5397.5-.3387.3333-.508 1.3333-.508 3v60z"/><path d="M605.9244 31.5c1.367 0 2.2213.166 2.563.4983.3417.332.5126.996.5126 1.992h0v60.758c0 .996-.1709 1.66-.5126 1.992-.3417.332-.8543.498-1.5378.498h0-12.8149c-.3417 0-.6834-.166-1.0252-.498-.3417-.332-.5125-.664-.5125-.996 0-2.9881-.171-4.6482-.5126-4.9802-.5126-.498-.786-.5185-1.5378-.498-.752.0205-1.7265 1.5933-3.0756 2.49-9.7393 6.4743-15.8905 6.9723-25.1172 3.9842-9.6552-3.1268-14.4394-9.601-14.3526-19.4226 0-5.9762 3.4173-11.2884 10.2519-15.9365 5.0903-3.462 14.8652-4.4821 19.9912-4.4821 5.126 0 11.7337 1.494 12.3023 1.494.6834 0 1.0252-.498 1.0252-1.494h0v-9.9604c0-.996-.171-1.66-.5126-1.992-.3418-.332-.8544-.498-1.5378-.498h0-34.8565c-.6835 0-1.196-.166-1.5378-.498-.3417-.332-.5126-.83-.5126-1.4941h0v-8.9643c-.0021-.662.1687-1.16.5126-1.494.3439-.3341.8565-.5002 1.5378-.4983h0zm-36.2207 39.5269c-3.4568 2.9948-4.4938 6.4887-3.1111 10.4818 1.3827 3.3275 4.8395 4.9913 10.3704 4.9913 5.5308 0 9.8518-2.4957 12.963-7.487.6913-1.6638 1.2098-2.9948 1.5555-3.993.2729-.7882.5185-1.8726.5185-3.494 0-.6655-.1728-1.1646-.5185-1.4974-11.0617-2.3293-18.321-1.9965-21.7778.9983z"/><path d="M532.8207 35c-1.036-.5-5.6979-3-12.4317-4-8.8995-1.3216-13.9856-1-20.2014 1s-9.7533 4.3372-12.9497 8.5c-1.3404 1.7458-2.3764 4.7458-3.1079 9-.3453 3.3333 0 6.1667 1.036 8.5 3.108 5.6667 13.1223 10.6667 30.0432 15 4.1438 1.6667 5.8705 4 5.1798 7-.6906 3-3.6259 4.8333-8.8057 5.5-4.4478.0633-7.7284-.1033-9.8418-.5-2.1134-.3967-5.0486-1.3967-8.8057-3-1.1923-.1934-2.0556-.1934-2.59 0-.5343.1934-1.0523.6934-1.5539 1.5L485.166 89c-.3453 1-.3453 1.8333 0 2.5.518 1 5.6978 3.5 7.2518 4 .7568.2435 18.6475 7.5 35.223-1 2.2794-1.1689 5.6087-3.7396 7.7698-7 1.4316-2.1598 2.59-6.5 2.59-10 0-1.381-.1024-4.7178-1.554-7.5-.6674-1.279-2.2213-3.1124-4.6619-5.5-3.7986-3-8.1151-5-12.9496-6-4.8346-1-9.1511-2.3333-12.9497-4-2.7626-1.3333-4.1439-3-4.1439-5s.8633-3.5 2.59-4.5c1.3813-1 4.1438-1.5 8.2877-1.5 6.2159 0 13.4797 2.8147 14.5036 3 1.024.1853 1.4543.1703 2.072 0 .6176-.1703 4.6618-6.5 5.6978-8 1.036-1.5-1.036-3-2.072-3.5zm-117.4764-4.5h-41.25c-1.375 0-2.2344.3333-2.5781 1-.3438.6667-.5157 2-.5157 4v59c0 1 .1719 1.6667.5157 2 .3437.3333.6875.5 1.0312.5h13.9219c.6875 0 1.2031-.1667 1.5469-.5.3437-.3333.5156-1 .5156-2V49c0-1 .1719-1.8333.5156-2.5.5156-1 2.0625-2 3.0938-2h11.8593c4.8125.3333 8.5938 1.5 11.3438 3.5 4.125 3 4.6406 8 4.6406 9.5v37c0 1 .1719 1.6667.5156 2 .1436.1392 1.0313 1.0003 2.0625 1.0003h11.8594c.5156 0 1.5469-.5003 2.0625-1.0003.3438-.3333.5156-1 .5156-2V54c-.3437-5.6667-2.2343-10.6667-5.6718-15-3.4375-4.3333-8.7657-7.1667-15.9844-8.5z"/><path d="M357.9244 31.5c1.367 0 2.2213.166 2.563.4983.3417.332.5126.996.5126 1.992h0v60.758c0 .996-.1709 1.66-.5126 1.992-.3417.332-.8543.498-1.5378.498h0-12.8149c-.3417 0-.6834-.166-1.0252-.498-.3417-.332-.5125-.664-.5125-.996 0-2.9881-.171-4.6482-.5126-4.9802-.5126-.498-.786-.5185-1.5378-.498-.752.0205-1.7265 1.5933-3.0756 2.49-9.7393 6.4743-15.8905 6.9723-25.1172 3.9842-9.6552-3.1268-14.4394-9.601-14.3526-19.4226 0-5.9762 3.4173-11.2884 10.2519-15.9365 5.0903-3.462 14.8652-4.4821 19.9912-4.4821 5.126 0 11.7337 1.494 12.3023 1.494.6834 0 1.0252-.498 1.0252-1.494h0v-9.9604c0-.996-.171-1.66-.5126-1.992-.3418-.332-.8544-.498-1.5378-.498h0-34.8565c-.6835 0-1.196-.166-1.5378-.498-.3417-.332-.5126-.83-.5126-1.4941h0v-8.9643c-.0021-.662.1687-1.16.5126-1.494.3439-.3341.8565-.5002 1.5378-.4983h0zm-36.2207 39.5269c-3.4568 2.9948-4.4938 6.4887-3.1111 10.4818 1.3827 3.3275 4.8395 4.9913 10.3704 4.9913 5.5308 0 9.8518-2.4957 12.963-7.487.6913-1.6638 1.2098-2.9948 1.5555-3.993.2729-.7882.5185-1.8726.5185-3.494 0-.6655-.1728-1.1646-.5185-1.4974-11.0617-2.3293-18.321-1.9965-21.7778.9983z"/><path d="M286.9244 31.5c1.367 0 2.2213.166 2.563.4983.3417.332.5126.996.5126 1.992h0v60.758c0 .996-.1709 1.66-.5126 1.992-.3417.332-.8543.498-1.5378.498h0-12.8149c-.3417 0-.6834-.166-1.0252-.498-.3417-.332-.5125-.664-.5125-.996 0-2.9881-.171-4.6482-.5126-4.9802-.5126-.498-.786-.5185-1.5378-.498-.752.0205-1.7265 1.5933-3.0756 2.49-9.7393 6.4743-15.8905 6.9723-25.1172 3.9842-9.6552-3.1268-14.4394-9.601-14.3526-19.4226 0-5.9762 3.4173-11.2884 10.2519-15.9365 5.0903-3.462 14.8652-4.4821 19.9912-4.4821 5.126 0 11.7337 1.494 12.3023 1.494.6834 0 1.0252-.498 1.0252-1.494h0v-9.9604c0-.996-.171-1.66-.5126-1.992-.3418-.332-.8544-.498-1.5378-.498h0-34.8565c-.6835 0-1.196-.166-1.5378-.498-.3417-.332-.5126-.83-.5126-1.4941h0v-8.9643c-.0021-.662.1687-1.16.5126-1.494.3439-.3341.8565-.5002 1.5378-.4983h0zm-36.2207 39.5269c-3.4568 2.9948-4.4938 6.4887-3.1111 10.4818 1.3827 3.3275 4.8395 4.9913 10.3704 4.9913 5.5308 0 9.8518-2.4957 12.963-7.487.6913-1.6638 1.2098-2.9948 1.5555-3.993.2729-.7882.5185-1.8726.5185-3.494 0-.6655-.1728-1.1646-.5185-1.4974-11.0617-2.3293-18.321-1.9965-21.7778.9983z"/><path d="M161.0005 33.5V43c0 .6667.1697 1.1667.509 1.5.3392.3333.6785.5 1.0178.5h26.4643c.6786 0 1.1875.1667 1.5268.5.3393.6667.1696 1.5-.509 2.5l-27.991 46.5c-.6786 1-.8482 1.6667-.509 2 .509.5 1.018 1 2.0358 1h52.4197c1.357 0 2.0356-.1667 2.0356-.5V85.5c0-.6667-.1696-1.1667-.5089-1.5-.509-.5-.509-.5-1.0179-.5h-26.9732c-.6785 0-1.1875-.1667-1.5268-.5-.2761-.2713-.6823-.787-.5089-1.5.0264-.1086 9.5264-15.942 28.5-47.5.3393-.6667.3393-1.3333 0-2-.3393-.3333-1.0178-.5-2.0357-.5h-50.8929c-.6785 0-1.1875.1667-1.5267.5-.3393.3333-.509.8333-.509 1.5z"/><g transform="translate(128 .5)"><path stroke-linecap="round" stroke-linejoin="round" d="M11.7581 31H5.5763c-1.3738.3333-2.2323.8333-2.5758 1.5V94c0 1 .1717 1.6667.5152 2 .5151.5 1.5454 1 2.0606 1h11.3333c1.0303-.3333 1.7172-.6667 2.0606-1 .3435-.3333.6869-1 1.0303-2V34v-1.5c-.3434-.6667-1.202-1.1667-2.5757-1.5H11.758z"/><ellipse cx="11.001" cy="10.5" rx="10" ry="9.5"/></g><path d="M114.9246 31.5003c1.3669 0 2.2212.166 2.563.4982.3417.332.5125.996.5125 1.992h0v60.758c0 .996-.1708 1.66-.5126 1.992-.3417.332-.8543.498-1.5378.498h0-12.8148c-.3418 0-.6835-.166-1.0252-.498-.3418-.332-.5126-.664-.5126-.996 0-2.988-.1709-4.6481-.5126-4.9801-.5126-.498-.7859-.5186-1.5378-.498-.752.0205-1.7264 1.5932-3.0756 2.49-9.7393 6.4742-15.8904 6.9723-25.1171 3.9842-9.6553-3.1269-14.4395-9.6011-14.3527-19.4226 0-5.9762 3.4173-11.2884 10.2519-15.9366 5.0904-3.4619 14.8653-4.4821 19.9912-4.4821 5.126 0 11.7337 1.494 12.3023 1.494.6835 0 1.0252-.498 1.0252-1.494h0V46.939c0-.996-.1709-1.66-.5126-1.992-.3417-.332-.8543-.498-1.5378-.498h0H63.665c-.6834 0-1.196-.166-1.5378-.4981-.3417-.332-.5126-.83-.5126-1.494h0v-8.9643c-.002-.662.1688-1.16.5126-1.494.344-.3342.8565-.5003 1.5378-.4983h0zM78.7038 71.027c-3.4568 2.9948-4.4938 6.4887-3.111 10.4818 1.3826 3.3276 4.8394 4.9914 10.3703 4.9914s9.8518-2.4957 12.963-7.487c.6913-1.6638 1.2098-2.9949 1.5555-3.9931.273-.7881.5185-1.8725.5185-3.494 0-.6655-.1728-1.1646-.5185-1.4974-11.0617-2.3292-18.321-1.9965-21.7778.9983z"/><path stroke-linecap="round" d="M44.9346 2h-32.022c-.6886 0-1.2051.1667-1.5494.5-.3444.3333-.5165.6667-.5165 1V30c0 .3333-.1722.6667-.5165 1-.3443.3333-.6886.5-1.033.5H1.55c-.3443 0-.6887.1667-1.033.5-.3443.3333-.5165.8333-.5165 1.5V43c0 .6667.1722 1.1667.5165 1.5.3443.3333.6887.5 1.033.5h7.2307c.6887 0 1.2052.1667 1.5495.5.3443.3333.5165.8333.5165 1.5v48c0 1 .1721 1.6667.5165 2 .3443.3333.8608.5 1.5494.5h12.9121c.6886 0 1.2051-.1667 1.5495-.5.3443-.3333.5164-.8333.5164-1.5V47c0-.6667.1722-1.1667.5165-1.5.3443-.3333.8608-.5 1.5495-.5h13.945c.6887 0 1.2052-.1667 1.5495-.5.3443-.3333.5165-.8333.5165-1.5v-9.5c0-.6667-.1722-1.1667-.5165-1.5-.3443-.3333-.8608-.5-1.5495-.5h-13.945c-.6887 0-1.2052-.1667-1.5495-.5-.3443-.3333-.5165-.8333-.5165-1.5v-12c0-.6667.1722-1.1667.5165-1.5.3443-.3333.8608-.5 1.5495-.5h14.978c.6886 0 1.2051-.1667 1.5494-.5.3444-.3333.5165-.8333.5165-1.5V4c0-.6667-.1721-1.1667-.5165-1.5-.3443-.3333-.8608-.5-1.5494-.5z"/></g><g fill="#0769DA" transform="translate(10)"><path d="M43.5 2h-31c-.6667 0-1.1667.1667-1.5.5-.3333.3333-.5.6667-.5 1V30c0 .3333-.1667.6667-.5 1-.3333.3333-.6667.5-1 .5H1.5c-.3333 0-.6667.1667-1 .5-.3333.3333-.5.8333-.5 1.5V43c0 .6667.1667 1.1667.5 1.5.3333.3333.6667.5 1 .5h7c.6667 0 1.1667.1667 1.5.5.3333.3333.5.8333.5 1.5v48c0 1 .1667 1.6667.5 2 .3333.3333.8333.5 1.5.5H25c.6667 0 1.1667-.1667 1.5-.5.3333-.3333.5-.8333.5-1.5V47c0-.6667.1667-1.1667.5-1.5.3333-.3333.8333-.5 1.5-.5h13.5c.6667 0 1.1667-.1667 1.5-.5.3333-.3333.5-.8333.5-1.5v-9.5c0-.6667-.1667-1.1667-.5-1.5-.3333-.3333-.8333-.5-1.5-.5H29c-.6667 0-1.1667-.1667-1.5-.5-.3333-.3333-.5-.8333-.5-1.5v-12c0-.6667.1667-1.1667.5-1.5.3333-.3333.8333-.5 1.5-.5h14.5c.6667 0 1.1667-.1667 1.5-.5.3333-.3333.5-.8333.5-1.5V4c0-.6667-.1667-1.1667-.5-1.5-.3333-.3333-.8333-.5-1.5-.5z"/><path d="M112.5001 31.5c1.3334 0 2.1667.1668 2.5.5003.3334.3333.5 1 .5 2v61c0 1-.1666 1.6666-.5 2-.3333.3333-.8333.5-1.5.5h-12.5c-.3333 0-.6666-.1667-1-.5-.3333-.3334-.5-.6667-.5-1 0-3-.1666-4.6667-.5-5-.5-.5-.7665-.5207-1.5-.5-.7334.0206-1.684 1.5995-3 2.5-9.5 6.5-15.5 7-24.5 4-9.418-3.1394-14.0846-9.6394-14-19.5 0-6 3.3334-11.3334 10-16 4.9653-3.4758 14.5-4.5 19.5-4.5s11.4454 1.5 12 1.5c.6667 0 1-.5 1-1.5v-10c0-1-.1666-1.6667-.5-2-.3333-.3334-.8333-.5-1.5-.5h-34c-.6666 0-1.1666-.1667-1.5-.5-.3333-.3334-.5-.8334-.5-1.5v-9c-.002-.6646.1646-1.1646.5-1.5.3354-.3355.8354-.5022 1.5-.5003zm-35.5 39.5003c-3.3333 3-4.3333 6.5-3 10.5 1.3334 3.3333 4.6667 5 10 5 5.3334 0 9.5-2.5 12.5-7.5.6667-1.6667 1.1667-3 1.5-4 .2632-.7895.5-1.8758.5-3.5 0-.6667-.1666-1.1667-.5-1.5-10.6666-2.3334-17.6666-2-21 1z"/><g transform="translate(125 .5)"><path d="M11.5 31h-6c-1.3333.3333-2.1667.8333-2.5 1.5V94c0 1 .1667 1.6667.5 2 .5.5 1.5 1 2 1h11c1-.3333 1.6667-.6667 2-1 .3333-.3333.6667-1 1-2V34v-1.5c-.3333-.6667-1.1667-1.1667-2.5-1.5h-5.5z"/><ellipse cx="11" cy="10.5" rx="11" ry="10.5"/></g><path d="M157 33.5V43c0 .6667.1667 1.1667.5 1.5.3333.3333.6667.5 1 .5h26c.6667 0 1.1667.1667 1.5.5.3333.6667.1667 1.5-.5 2.5L158 94.5c-.6667 1-.8333 1.6667-.5 2 .5.5 1 1 2 1H211c1.3333 0 2-.1667 2-.5V85.5c0-.6667-.1667-1.1667-.5-1.5-.5-.5-.5-.5-1-.5H185c-.6667 0-1.1667-.1667-1.5-.5-.2713-.2713-.6704-.787-.5-1.5.026-.1086 9.3593-15.942 28-47.5.3333-.6667.3333-1.3333 0-2-.3333-.3333-1-.5-2-.5h-50c-.6667 0-1.1667.1667-1.5.5-.3333.3333-.5.8333-.5 1.5z"/><path d="M280.5011 31.5c1.3334 0 2.1667.1668 2.5.5003.3334.3333.5 1 .5 2v61c0 1-.1666 1.6666-.5 2-.3333.3333-.8333.5-1.5.5h-12.5c-.3333 0-.6666-.1667-1-.5-.3333-.3334-.5-.6667-.5-1 0-3-.1666-4.6667-.5-5-.5-.5-.7665-.5207-1.5-.5-.7334.0206-1.684 1.5995-3 2.5-9.5 6.5-15.5 7-24.5 4-9.418-3.1394-14.0846-9.6394-14-19.5 0-6 3.3334-11.3334 10-16 4.9653-3.4758 14.5-4.5 19.5-4.5s11.4454 1.5 12 1.5c.6667 0 1-.5 1-1.5v-10c0-1-.1666-1.6667-.5-2-.3333-.3334-.8333-.5-1.5-.5h-34c-.6666 0-1.1666-.1667-1.5-.5-.3333-.3334-.5-.8334-.5-1.5v-9c-.002-.6646.1646-1.1646.5-1.5.3354-.3355.8354-.5022 1.5-.5003zm-35.5 39.5003c-3.3333 3-4.3333 6.5-3 10.5 1.3334 3.3333 4.6667 5 10 5 5.3334 0 9.5-2.5 12.5-7.5.6667-1.6667 1.1667-3 1.5-4 .2632-.7895.5-1.8758.5-3.5 0-.6667-.1666-1.1667-.5-1.5-10.6666-2.3334-17.6666-2-21 1z"/><path d="M349.5011 31.5c1.3334 0 2.1667.1668 2.5.5003.3334.3333.5 1 .5 2v61c0 1-.1666 1.6666-.5 2-.3333.3333-.8333.5-1.5.5h-12.5c-.3333 0-.6666-.1667-1-.5-.3333-.3334-.5-.6667-.5-1 0-3-.1666-4.6667-.5-5-.5-.5-.7665-.5207-1.5-.5-.7334.0206-1.684 1.5995-3 2.5-9.5 6.5-15.5 7-24.5 4-9.418-3.1394-14.0846-9.6394-14-19.5 0-6 3.3334-11.3334 10-16 4.9653-3.4758 14.5-4.5 19.5-4.5s11.4454 1.5 12 1.5c.6667 0 1-.5 1-1.5v-10c0-1-.1666-1.6667-.5-2-.3333-.3334-.8333-.5-1.5-.5h-34c-.6666 0-1.1666-.1667-1.5-.5-.3333-.3334-.5-.8334-.5-1.5v-9c-.002-.6646.1646-1.1646.5-1.5.3354-.3355.8354-.5022 1.5-.5003zm-35.5 39.5003c-3.3333 3-4.3333 6.5-3 10.5 1.3334 3.3333 4.6667 5 10 5 5.3334 0 9.5-2.5 12.5-7.5.6667-1.6667 1.1667-3 1.5-4 .2632-.7895.5-1.8758.5-3.5 0-.6667-.1666-1.1667-.5-1.5-10.6666-2.3334-17.6666-2-21 1z"/><path d="M406 30.5h-40c-1.3333 0-2.1667.3333-2.5 1-.3333.6667-.5 2-.5 4v59c0 1 .1667 1.6667.5 2 .3333.3333.6667.5 1 .5H378c.6667 0 1.1667-.1667 1.5-.5.3333-.3333.5-1 .5-2V49c0-1 .1667-1.8333.5-2.5.5-1 2-2 3-2H395c4.6667.3333 8.3333 1.5 11 3.5 4 3 4.5 8 4.5 9.5v37c0 1 .1667 1.6667.5 2 .1392.1392 1 1.0003 2 1.0003h11.5c.5 0 1.5-.5003 2-1.0003.3333-.3333.5-1 .5-2V54c-.3333-5.6667-2.1667-10.6667-5.5-15-3.3333-4.3333-8.5-7.1667-15.5-8.5zM520.5 35c-1-.5-5.5-3-12-4-8.5905-1.3216-13.5-1-19.5 1s-9.4147 4.3372-12.5 8.5c-1.2939 1.7458-2.2939 4.7458-3 9-.3333 3.3333 0 6.1667 1 8.5 3 5.6667 12.6667 10.6667 29 15 4 1.6667 5.6667 4 5 7-.6667 3-3.5 4.8333-8.5 5.5-4.2933.0633-7.46-.1033-9.5-.5s-4.8733-1.3967-8.5-3c-1.1509-.1934-1.9842-.1934-2.5 0s-1.0158.6934-1.5 1.5l-3.5 5.5c-.3333 1-.3333 1.8333 0 2.5.5 1 5.5 3.5 7 4 .7305.2435 18 7.5 34-1 2.2003-1.1689 5.414-3.7396 7.5-7 1.3819-2.1598 2.5-6.5 2.5-10 0-1.381-.0988-4.7178-1.5-7.5-.6442-1.279-2.1442-3.1124-4.5-5.5-3.6667-3-7.8333-5-12.5-6s-8.8333-2.3333-12.5-4c-2.6667-1.3333-4-3-4-5s.8333-3.5 2.5-4.5c1.3333-1 4-1.5 8-1.5 6 0 13.0116 2.8147 14 3 .9884.1853 1.4038.1703 2 0 .5962-.1703 4.5-6.5 5.5-8s-1-3-2-3.5z"/><path d="M592.5011 31.5c1.3334 0 2.1667.1668 2.5.5003.3334.3333.5 1 .5 2v61c0 1-.1666 1.6666-.5 2-.3333.3333-.8333.5-1.5.5h-12.5c-.3333 0-.6666-.1667-1-.5-.3333-.3334-.5-.6667-.5-1 0-3-.1666-4.6667-.5-5-.5-.5-.7665-.5207-1.5-.5-.7334.0206-1.684 1.5995-3 2.5-9.5 6.5-15.5 7-24.5 4-9.418-3.1394-14.0846-9.6394-14-19.5 0-6 3.3334-11.3334 10-16 4.9653-3.4758 14.5-4.5 19.5-4.5s11.4454 1.5 12 1.5c.6667 0 1-.5 1-1.5v-10c0-1-.1666-1.6667-.5-2-.3333-.3334-.8333-.5-1.5-.5h-34c-.6666 0-1.1666-.1667-1.5-.5-.3333-.3334-.5-.8334-.5-1.5v-9c-.002-.6646.1646-1.1646.5-1.5.3354-.3355.8354-.5022 1.5-.5003zm-35.5 39.5003c-3.3333 3-4.3333 6.5-3 10.5 1.3334 3.3333 4.6667 5 10 5 5.3334 0 9.5-2.5 12.5-7.5.6667-1.6667 1.1667-3 1.5-4 .2632-.7895.5-1.8758.5-3.5 0-.6667-.1666-1.1667-.5-1.5-10.6666-2.3334-17.6666-2-21 1z"/><path d="M606 65.5v29c.0356.976.2023 1.6427.5 2 .4466.5359 1 1 2 1s11.212.0584 12 0c.788-.0584 1-.5 1.5-1 .3333-.3333.5-1 .5-2v-23c.1628-.4393.3295-.7726.5-1 .2558-.341.5563-.6854 1.5-1h3c.3333 0 .8333.3333 1.5 1L650.5 96l1 1c.5.5 1 .5 3 .5H667c1 0 1.8333-.3333 2.5-1 1-1 .5-2.5-2-5-1.6667-1.6667-9.8333-10.8333-24.5-27.5-.3333-.3333-.5-.8333-.5-1.5 0-1 22.5-24.5 25-27 .046-.046.09-.0936.132-.1425.9032-1.0539.8526-2.7363-.132-3.3575-.6242-.3939-1.5-.5-2-.5H651c-.6667 0-1.1667.1667-1.5.5-.3333.3333-6.8333 7.6667-19.5 22l-1.5 1.5c-.3333.3333-.6667.5-1 .5h-3c-.3333 0-.6667-.1667-1-.5-1-1-1-1-1-3V4c0-.6667-.1667-1.1667-.5-1.5-.5-.5-1.5-.5-2.5-.5H609c-1.3333 0-2.1667.1667-2.5.5-.3333.3333-.5 1.3333-.5 3v60z"/><g transform="translate(680 .5)"><path d="M11.5 31h-6c-1.3333.3333-2.1667.8333-2.5 1.5V94c0 1 .1667 1.6667.5 2 .5.5 1.5 1 2 1h11c1-.3333 1.6667-.6667 2-1 .3333-.3333.6667-1 1-2V34v-1.5c-.3333-.6667-1.1667-1.1667-2.5-1.5h-5.5z"/><ellipse cx="11" cy="10.5" rx="11" ry="10.5"/></g><path d="M726 2c1.0223.0223 1.689.189 2 .5.311.311.4777.9777.5 2V31c0 .3333.8333.5 2.5.5h14.5c7.9763 0 14.6156 2.0293 20 5 9.6667 5.3333 15.1668 14.6667 16.5005 28C781.6668 77.8333 776.5 87.6667 766.5 94c-5.886 3.7278-16 5.5-23 4-3.3251-.7125-7.4918-3.0459-12.5-7-.6667-.6667-1.3333-.8333-2-.5-.6667.3333-1 .8333-1 1.5v3.5c0 .6667-.1667 1.1667-.5 1.5-.3333.3333-.8333.5-1.5.5h-11.5c-1.3333 0-2.1667-.1667-2.5-.5-.5-.5-.5-1.5-.5-2l.0002-90.7068c.0024-.8646.0355-1.329.4998-1.7932.3333-.3333 1-.5 2-.5zm21.5 42.5H738c-2.3333 0-4.5.8333-6.5 2.5s-3 3.5-3 5.5v13c0 2.9832 1.5 11 6 14.5s11.0327 4.7186 13 4.5c1.9673-.2186 7-.5 12-5.5 3.3333-3.3333 5-8.1667 5-14.5-.6667-6.6667-2.3333-11.5-5-14.5s-6.6667-4.8333-12-5.5z"/></g></g></svg>